<svg id="Слой_1" data-name="Слой 1" xmlns="http://www.w3.org/2000/svg" viewBox="0 0 500 500"><title>icons_white</title><path d="M42.79,261A206.24,206.24,0,0,0,76.71,364h91c-7-31.15-11-66.3-11.64-103Z"/><path d="M203.55,452.26c-8.41-11.3-16.05-25.82-22.65-43.35-2.62-7-5-14.27-7.27-21.91H94.3A207.66,207.66,0,0,0,203.55,452.26Z"/><path d="M203.55,47.74A207.65,207.65,0,0,0,95.19,112h78.73q3.22-10.92,7-20.91C187.5,73.56,195.14,59,203.55,47.74Z"/><path d="M457.14,238a206.15,206.15,0,0,0-34.51-103H332c7,31.12,11.11,66.27,11.84,103Z"/><path d="M296.45,47.74C304.86,59,312.5,73.56,319.1,91.09q3.75,10,7,20.91h78.73A207.65,207.65,0,0,0,296.45,47.74Z"/><path d="M296.45,452.26A207.66,207.66,0,0,0,405.7,387H326.37c-2.23,7.64-4.65,15-7.27,21.91C312.5,426.44,304.86,441,296.45,452.26Z"/><path d="M156.12,238c.73-36.73,4.81-71.88,11.84-103H77.37A206.15,206.15,0,0,0,42.86,238Z"/><path d="M343.9,261c-.67,36.7-4.68,71.85-11.64,103h91a206.24,206.24,0,0,0,33.92-103Z"/><path d="M250,457.5c18.63,0,38.45-26.25,52.39-70.5H197.61C211.55,431.25,231.37,457.5,250,457.5Z"/><path d="M320.88,238c-.79-39-5.4-73.87-12.41-103H191.53c-7,29.13-11.62,64-12.41,103Z"/><path d="M179.1,261c.73,38.94,5.26,73.82,12.19,103H308.71c6.93-29.18,11.46-64.06,12.19-103Z"/><path d="M250,42.5c-18.49,0-38.15,25.85-52.08,69.5H302.08C288.15,68.35,268.49,42.5,250,42.5Z"/></svg>