<svg id="Слой_1" data-name="Слой 1" xmlns="http://www.w3.org/2000/svg" viewBox="0 0 500 500"><title>icons_white</title><rect x="75.86" y="225.55" width="317.81" height="78.55" transform="translate(-118.5 243.57) rotate(-45)"/><polygon points="71.79 376.08 49.86 450.55 124.33 428.62 71.79 376.08"/><path d="M456.21,98.92a7.78,7.78,0,0,0,1.39-9.17,7.26,7.26,0,0,0-.85-1.3,7.7,7.7,0,0,0-.54-.6L411.74,43.38a7.84,7.84,0,0,0-11.07,0L344.1,99.94l55.55,55.55Z"/><polygon points="39.13 490.2 39.13 494.5 460.87 494.5 460.87 459.5 143.37 459.5 39.13 459.5 39.13 490.2"/></svg>