<svg id="Слой_1" data-name="Слой 1" xmlns="http://www.w3.org/2000/svg" viewBox="0 0 500 500"><title>icons_white</title><path d="M51.68,458.5H448.32a10.2,10.2,0,0,0,10.18-10.18V51.68A10.2,10.2,0,0,0,448.32,41.5H348.57V151.29a42.56,42.56,0,0,1-42.52,42.51H147.27a42.56,42.56,0,0,1-42.51-42.51V41.5H51.68A10.2,10.2,0,0,0,41.5,51.68V448.32A10.2,10.2,0,0,0,51.68,458.5Zm52.16-191.58A16.91,16.91,0,0,1,120.75,250h258.5a16.91,16.91,0,0,1,16.91,16.92V387.84a16.91,16.91,0,0,1-16.91,16.92H120.75a16.91,16.91,0,0,1-16.91-16.92Z"/><path d="M147.27,158.8H306.05a7.52,7.52,0,0,0,7.52-7.51V42.73H139.76V151.29A7.51,7.51,0,0,0,147.27,158.8Zm75.07-82.05a8.9,8.9,0,0,1,8.9-8.91h44.82A8.91,8.91,0,0,1,285,76.75v49a8.91,8.91,0,0,1-8.91,8.91H231.24a8.9,8.9,0,0,1-8.9-8.91Z"/></svg>