<svg id="Слой_1" data-name="Слой 1" xmlns="http://www.w3.org/2000/svg" viewBox="0 0 500 500"><title>icons_white</title><polygon points="18.33 331.94 29.76 337.77 29.76 204.73 18.33 213.47 18.33 331.94"/><polygon points="59.46 352.92 72.15 359.39 72.15 172.31 59.46 182.01 59.46 352.92"/><path d="M83.15,170.08V360.33L153.44,333V282.47l-20.47.84-.93,0a23.28,23.28,0,0,1-.95-46.54l22.35-.92V205.22Z"/><path d="M119.78,260.55A12.28,12.28,0,0,0,132,272.33h.51l20.89-.86V246.88l-21.9.9A12.27,12.27,0,0,0,119.78,260.55Z"/><polygon points="245.35 411.8 267.31 423 267.31 79.16 245.35 95.95 245.35 411.8"/><polygon points="164.44 370.56 186.39 381.75 186.39 141.04 164.44 157.82 164.44 370.56"/><path d="M278.32,76.92v347L428.08,365.7v-82l-29-1.2a91.19,91.19,0,0,1-5.31,16.59c-8.94,20.3-21.3,23.34-27.88,23.34s-18.94-3-27.87-23.34c-5.36-12.17-8.31-28.12-8.31-44.9s3-32.72,8.31-44.9C347,189,359.32,186,365.89,186s18.94,3,27.88,23.33a90.23,90.23,0,0,1,5.18,16l29.13-2.48V151.8Z"/><path d="M365.89,197c-13.91,0-25.18,25.62-25.18,57.23s11.27,57.24,25.18,57.24c9.46,0,17.7-11.87,22-29.4l-24.56-1-1.51-2.64c-7.19-12.58-9.33-23.92-6.37-33.69a28.3,28.3,0,0,1,13.15-16.39l.95-.47,18.32-1.56C383.56,208.82,375.34,197,365.89,197Z"/><polygon points="234.35 406.19 234.35 104.36 197.39 132.63 197.39 387.36 234.35 406.19"/><polygon points="48.46 347.31 48.46 190.43 40.76 196.32 40.76 343.39 48.46 347.31"/><path d="M372.78,238.63a17.32,17.32,0,0,0-6.86,9.46c-1.78,6.12-.43,13.59,4,22.22l85.15,3.55a62.87,62.87,0,0,1-3.48-21.63,64.08,64.08,0,0,1,3.1-20.57Z"/><ellipse cx="474.89" cy="252.23" rx="12.28" ry="27.91"/></svg>