<svg id="Слой_1" data-name="Слой 1" xmlns="http://www.w3.org/2000/svg" viewBox="0 0 500 500"><title>icons_white</title><path d="M391.91,109.53H150.84l-8.31-25.84H61.09A27.4,27.4,0,0,0,33.72,111c-.1,52-.16,138.09-.2,190.24L56.45,216c6.37-23.67,30.1-42.22,54-42.22H408.1V127.33C408.1,117.52,400.84,109.53,391.91,109.53Z"/><path d="M461.56,208.75H110.48c-8.3,0-17.94,7.77-20.23,16.31l-49.48,184c-.81,3-.4,5,.26,5.86.94,1.22,3.27,1.35,4.23,1.35H396.34c8.3,0,17.93-7.77,20.23-16.3l49.48-184c.81-3,.4-5-.26-5.86C464.85,208.89,462.52,208.75,461.56,208.75Z"/></svg>