<svg id="Слой_1" data-name="Слой 1" xmlns="http://www.w3.org/2000/svg" viewBox="0 0 500 500"><title>icons_white</title><path d="M316.27,70.79a16,16,0,0,0-16-16H202.34a16,16,0,0,0-16,16V247.58h130Z"/><path d="M115.91,292.74,247.33,398.85a5.71,5.71,0,0,0,7.18,0L385.92,292.74a5.71,5.71,0,0,0-3.59-10.16H119.5A5.71,5.71,0,0,0,115.91,292.74Z"/><path d="M43.81,115.75V419.42c0,23.89,17.63,43.33,39.31,43.33H416.88c21.68,0,39.31-19.44,39.31-43.33V115.75h-35V419.42c0,5.09-2.83,8.33-4.31,8.33H83.12c-1.48,0-4.31-3.24-4.31-8.33V115.75Z"/></svg>