<svg id="Слой_1" data-name="Слой 1" xmlns="http://www.w3.org/2000/svg" viewBox="0 0 500 500"><title>icons_white</title><path d="M181.54,388.76V104.62H44.92A4.42,4.42,0,0,0,40.5,109V455.39a4.43,4.43,0,0,0,4.42,4.42H279a4.43,4.43,0,0,0,4.42-4.42v-25h-60.3A41.67,41.67,0,0,1,181.54,388.76Z"/><path d="M334.5,123.57V40.19H223.16a6.63,6.63,0,0,0-6.62,6.62v342a6.64,6.64,0,0,0,6.62,6.63H452.89a6.63,6.63,0,0,0,6.61-6.63V165.19H376.12A41.67,41.67,0,0,1,334.5,123.57Zm77.59,216H264.68v-23H412.09Zm0-59.41H264.68v-23H412.09Zm0-59.4H264.68v-23H412.09Z"/><path d="M376.12,130.19h58.63L369.5,64.94v58.63A6.63,6.63,0,0,0,376.12,130.19Z"/></svg>