<svg id="Слой_1" data-name="Слой 1" xmlns="http://www.w3.org/2000/svg" viewBox="0 0 2534.8 1560.8"><title>icons_white</title><path d="M835.62,586.89V442.21H766.05a2.25,2.25,0,0,0-2.25,2.25V620.82a2.25,2.25,0,0,0,2.25,2.25H885.27a2.25,2.25,0,0,0,2.25-2.25V608.09H856.81A21.22,21.22,0,0,1,835.62,586.89Z"/><path d="M913.51,451.86V409.4h-56.7a3.37,3.37,0,0,0-3.37,3.37V586.89a3.38,3.38,0,0,0,3.37,3.38h117a3.38,3.38,0,0,0,3.37-3.38V473.05H934.7A21.21,21.21,0,0,1,913.51,451.86Zm39.51,110H878V550.15H953Zm0-30.25H878V519.9H953Zm0-30.25H878V489.65H953Z"/><path d="M934.7,455.23h29.86L931.33,422v29.86A3.37,3.37,0,0,0,934.7,455.23Z"/><rect x="1046.59" y="503.79" width="161.83" height="40" transform="translate(-40.13 950.68) rotate(-45)"/><polygon points="1044.52 580.43 1033.35 618.36 1071.28 607.19 1044.52 580.43"/><path d="M1240.27,439.31a4,4,0,0,0,1-4,5.42,5.42,0,0,0-.29-.72,4.73,4.73,0,0,0-.44-.66l-.27-.3L1217.62,411a4,4,0,0,0-5.64,0l-28.8,28.81,28.28,28.28Z"/><polygon points="1027.89 638.54 1027.89 640.73 1242.64 640.73 1242.64 622.91 1080.97 622.91 1027.89 622.91 1027.89 638.54"/><path d="M1456,623.13c5.12,0,9.33-3.35,9.67-6.34l19.24-168.37h-39.36l-7.78,174.71Z"/><path d="M1344.11,623.13h18.24l-7.78-174.71h-39.36l19.23,168.37C1334.79,619.78,1339,623.13,1344.11,623.13Z"/><path d="M1486,430.6V414.25a4.92,4.92,0,0,0-4.91-4.91H1319a4.91,4.91,0,0,0-4.91,4.91V430.6H1486Z"/><polygon points="1380.19 623.13 1419.91 623.13 1427.69 448.42 1372.41 448.42 1380.19 623.13"/><path d="M1563.85,622.4h202a5.19,5.19,0,0,0,5.18-5.18v-202a5.19,5.19,0,0,0-5.18-5.18H1715V466a21.67,21.67,0,0,1-21.65,21.65h-80.85A21.67,21.67,0,0,1,1590.88,466v-55.9h-27a5.19,5.19,0,0,0-5.19,5.18v202A5.19,5.19,0,0,0,1563.85,622.4Zm26.56-97.55a8.6,8.6,0,0,1,8.61-8.61h131.62a8.61,8.61,0,0,1,8.62,8.61v61.57a8.62,8.62,0,0,1-8.62,8.62H1599a8.61,8.61,0,0,1-8.61-8.62Z"/><path d="M1612.52,469.8h80.85a3.84,3.84,0,0,0,3.83-3.83V410.69h-88.5V466A3.83,3.83,0,0,0,1612.52,469.8ZM1650.75,428a4.53,4.53,0,0,1,4.53-4.54h22.82a4.54,4.54,0,0,1,4.54,4.54V453a4.54,4.54,0,0,1-4.54,4.54h-22.82a4.53,4.53,0,0,1-4.53-4.54Z"/><path d="M904.22,689.76a8.16,8.16,0,0,0-8.16-8.16H846.21a8.16,8.16,0,0,0-8.17,8.16v90h66.18Z"/><path d="M802.2,802.78l66.92,54a2.89,2.89,0,0,0,3.65,0l66.92-54a2.91,2.91,0,0,0-1.83-5.17H804A2.91,2.91,0,0,0,802.2,802.78Z"/><path d="M765.49,712.66V867.29c0,12.16,9,22.06,20,22.06h170c11,0,20-9.9,20-22.06V712.66H957.65V867.29c0,2.59-1.44,4.24-2.19,4.24h-170c-.75,0-2.19-1.65-2.19-4.24V712.66Z"/><path d="M1207.52,709.49H1084.77l-4.23-13.16h-41.47a14,14,0,0,0-13.94,13.91c-.05,26.47-.08,70.32-.1,96.87l11.68-43.42c3.24-12.05,15.32-21.5,27.51-21.5h151.55V718.56C1215.77,713.56,1212.07,709.49,1207.52,709.49Z"/><path d="M1243,760H1064.22c-4.22,0-9.13,4-10.3,8.3L1028.72,862a3.61,3.61,0,0,0,.14,3c.47.63,1.66.69,2.15.69h178.77c4.22,0,9.13-4,10.3-8.3l25.2-93.71a3.61,3.61,0,0,0-.14-3C1244.67,760.08,1243.48,760,1243,760Z"/><path d="M1400.05,678.42A102.6,102.6,0,1,0,1502.65,781,102.72,102.72,0,0,0,1400.05,678.42Zm56.71,146.71-12.6,12.6-44.11-44.11-44.11,44.11-12.6-12.6L1387.45,781l-44.11-44.11,12.6-12.6,44.11,44.11,44.11-44.11,12.6,12.6L1412.65,781Z"/><path d="M1559.32,786.62a105,105,0,0,0,17.27,52.45H1623a265.11,265.11,0,0,1-5.93-52.45Z"/><path d="M1641.18,884a90.48,90.48,0,0,1-11.53-22.07c-1.34-3.54-2.57-7.27-3.7-11.16h-40.4A105.74,105.74,0,0,0,1641.18,884Z"/><path d="M1641.18,678A105.72,105.72,0,0,0,1586,710.75h40.09q1.65-5.57,3.56-10.65A90.48,90.48,0,0,1,1641.18,678Z"/><path d="M1770.31,774.91a105,105,0,0,0-17.58-52.45h-46.12a264.73,264.73,0,0,1,6,52.45Z"/><path d="M1688.48,678A90.48,90.48,0,0,1,1700,700.1q1.9,5.08,3.55,10.65h40.09A105.68,105.68,0,0,0,1688.48,678Z"/><path d="M1688.48,884a105.76,105.76,0,0,0,55.64-33.23h-40.4c-1.14,3.89-2.37,7.62-3.7,11.16A90.48,90.48,0,0,1,1688.48,884Z"/><path d="M1617,774.91a264.7,264.7,0,0,1,6-52.45h-46.13a105,105,0,0,0-17.58,52.45Z"/><path d="M1712.65,786.62a266.61,266.61,0,0,1-5.93,52.45h46.35a105,105,0,0,0,17.27-52.45Z"/><path d="M1664.83,886.68c9.49,0,19.58-13.37,26.68-35.9h-53.36C1645.25,873.31,1655.34,886.68,1664.83,886.68Z"/><path d="M1700.92,774.91a248.66,248.66,0,0,0-6.31-52.45h-59.55a248,248,0,0,0-6.32,52.45Z"/><path d="M1628.73,786.62a249.45,249.45,0,0,0,6.21,52.45h59.79a249.5,249.5,0,0,0,6.2-52.45Z"/><path d="M1664.83,675.36c-9.42,0-19.42,13.16-26.52,35.39h53C1684.26,688.52,1674.25,675.36,1664.83,675.36Z"/><path d="M893.88,1148.79a105.77,105.77,0,0,0,55.63-33.23h-40.4c-1.13,3.89-2.37,7.62-3.7,11.16A90.48,90.48,0,0,1,893.88,1148.79Z"/><path d="M774.87,1091.36l40-40H764.71A105.55,105.55,0,0,0,774.87,1091.36Z"/><path d="M822.42,1039.69a264.51,264.51,0,0,1,6-52.44H782.32a104.86,104.86,0,0,0-17.57,52.44Z"/><path d="M965.74,1000.59l-39.1,39.1H975.7A105.33,105.33,0,0,0,965.74,1000.59Z"/><path d="M846.57,1148.79A86.48,86.48,0,0,1,836.33,1130L825,1141.32A105,105,0,0,0,846.57,1148.79Z"/><path d="M846.57,942.81a105.83,105.83,0,0,0-55.18,32.72h40.1c1.09-3.7,2.28-7.26,3.55-10.64A90.38,90.38,0,0,1,846.57,942.81Z"/><path d="M918,1051.4a265.11,265.11,0,0,1-5.93,52.45h46.35a105.06,105.06,0,0,0,17.28-52.45Z"/><path d="M904.27,962l11.51-11.52a105.14,105.14,0,0,0-21.9-7.64A86.73,86.73,0,0,1,904.27,962Z"/><path d="M862.48,1103.85h37.64a241.44,241.44,0,0,0,5.91-43.54Z"/><path d="M870.23,1151.46c9.48,0,19.57-13.36,26.67-35.9H850.77l-5.4,5.4C852.31,1140.21,861.52,1151.46,870.23,1151.46Z"/><path d="M870.23,940.14c-9.42,0-19.43,13.17-26.52,35.39h47l4.52-4.51C888.26,951.54,879,940.14,870.23,940.14Z"/><path d="M834.4,1031.83,879,987.25H840.45A240.93,240.93,0,0,0,834.4,1031.83Z"/><path d="M943.46,973.94l-.57-.57A102.68,102.68,0,0,0,929.44,962l-143,143a103.33,103.33,0,0,0,11.37,13.45l.67.66a103.49,103.49,0,0,0,12.85,10.69L954.24,986.89A103.4,103.4,0,0,0,943.46,973.94Z"/><polygon points="1017.3 1087.53 1023.12 1090.5 1023.12 1022.75 1017.3 1027.2 1017.3 1087.53"/><polygon points="1038.24 1098.21 1044.7 1101.5 1044.7 1006.24 1038.24 1011.18 1038.24 1098.21"/><path d="M1050.31,1005.11V1102l35.79-13.92v-25.73l-10.43.43h-.47a11.85,11.85,0,0,1-.49-23.69l11.39-.47V1023Z"/><path d="M1069,1051.18a6.25,6.25,0,0,0,6.25,6h.26l10.64-.44v-12.52l-11.16.46A6.26,6.26,0,0,0,1069,1051.18Z"/><polygon points="1132.9 1128.19 1144.08 1133.89 1144.08 958.81 1132.9 967.36 1132.9 1128.19"/><polygon points="1091.7 1107.19 1102.87 1112.89 1102.87 990.32 1091.7 998.86 1091.7 1107.19"/><path d="M1149.68,957.67v176.7l76.26-29.65V1063l-14.77-.62a45.76,45.76,0,0,1-2.7,8.45c-4.55,10.34-10.85,11.88-14.19,11.88s-9.65-1.54-14.2-11.88c-2.73-6.2-4.23-14.32-4.23-22.86s1.5-16.66,4.23-22.86c4.55-10.34,10.85-11.89,14.2-11.89s9.64,1.55,14.19,11.89a45.67,45.67,0,0,1,2.64,8.16l14.83-1.27V995.8Z"/><path d="M1194.28,1018.82c-7.09,0-12.83,13-12.83,29.14s5.74,29.14,12.83,29.14c4.81,0,9-6,11.2-15l-12.51-.52-.77-1.34c-3.66-6.41-4.75-12.18-3.24-17.16a14.41,14.41,0,0,1,6.7-8.34l.48-.24,9.33-.79C1203.27,1024.84,1199.08,1018.82,1194.28,1018.82Z"/><polygon points="1127.3 1125.34 1127.3 971.64 1108.47 986.04 1108.47 1115.75 1127.3 1125.34"/><polygon points="1032.64 1095.35 1032.64 1015.47 1028.72 1018.47 1028.72 1093.36 1032.64 1095.35"/><path d="M1197.78,1040a8.88,8.88,0,0,0-3.49,4.82c-.91,3.12-.22,6.92,2,11.32l43.35,1.8a32.13,32.13,0,0,1-1.77-11,32.77,32.77,0,0,1,1.58-10.48Z"/><ellipse cx="1249.78" cy="1046.94" rx="6.25" ry="14.21"/></svg>