<?xml version="1.0" standalone="no"?>
<!DOCTYPE svg PUBLIC "-//W3C//DTD SVG 20010904//EN"
 "http://www.w3.org/TR/2001/REC-SVG-20010904/DTD/svg10.dtd">
<svg version="1.0" xmlns="http://www.w3.org/2000/svg"
 width="700.000000pt" height="700.000000pt" viewBox="0 0 700.000000 700.000000"
 preserveAspectRatio="xMidYMid meet">
<metadata>
Created by potrace 1.14, written by Peter Selinger 2001-2017
</metadata>
<g transform="translate(0.000000,700.000000) scale(0.100000,-0.100000)"
fill="#000000" stroke="none">
<path d="M3899 5917 c-6 -12 -2 -4847 3 -4847 4 0 252 95 550 211 299 116 595
230 658 255 63 25 124 49 135 54 11 5 180 70 375 146 195 75 360 140 365 144
10 8 14 1135 4 1144 -4 4 -284 18 -349 18 -55 0 -58 -2 -65 -39 -19 -105 -97
-276 -163 -359 -76 -97 -181 -154 -286 -156 -179 -4 -336 147 -427 412 -22 63
-23 65 -48 190 -72 351 -26 785 111 1039 64 119 133 190 227 234 189 89 392
-16 508 -263 34 -72 83 -211 83 -237 0 -14 11 -15 93 -9 161 11 241 18 262 21
11 2 29 4 40 4 20 1 20 8 19 498 l0 497 -1011 506 c-1059 529 -1082 541 -1084
537z"/>
<path d="M3665 5833 c-38 -29 -106 -82 -150 -116 l-80 -63 0 -2209 0 -2210
150 -77 c83 -43 152 -78 155 -78 6 0 5 4799 -1 4804 -2 2 -35 -21 -74 -51z"/>
<path d="M3015 5336 l-250 -192 0 -1783 0 -1783 253 -130 c139 -72 255 -128
258 -125 4 3 7 3531 4 4160 0 26 -3 47 -7 46 -5 0 -120 -87 -258 -193z"/>
<path d="M2565 4991 c-22 -17 -44 -34 -50 -39 -5 -4 -56 -42 -111 -84 l-102
-77 0 -1489 0 -1489 150 -77 c82 -43 151 -76 154 -74 2 3 3 760 2 1682 l-3
1678 -40 -31z"/>
<path d="M1169 4605 c-3 -16 -4 -2645 -2 -2645 4 0 150 53 178 65 17 7 98 38
180 70 83 32 164 64 180 70 17 7 66 26 110 43 100 38 99 37 225 87 l105 41 0
354 0 355 -80 -4 c-296 -14 -354 -2 -447 91 -123 123 -124 327 -1 454 80 84
134 97 423 109 52 2 98 4 103 4 4 1 7 97 7 214 l0 212 -490 245 c-270 135
-491 241 -491 235z"/>
<path d="M915 4516 l-80 -63 -2 -1197 -2 -1197 90 -44 89 -45 0 1305 c0 718
-3 1305 -7 1304 -5 0 -44 -29 -88 -63z"/>
<path d="M625 4292 l-50 -38 -3 -1030 -2 -1029 32 -17 c18 -9 43 -21 55 -27
l21 -11 0 1095 c0 602 0 1095 -1 1095 -1 0 -24 -17 -52 -38z"/>
<path d="M5042 4219 c-111 -55 -208 -252 -253 -514 -17 -101 -20 -383 -4 -490
51 -355 184 -576 345 -575 71 1 159 76 217 187 32 60 87 212 80 219 -2 2 -62
7 -133 10 -71 3 -147 7 -169 8 -37 2 -41 5 -76 70 -62 115 -84 196 -84 316 0
97 2 110 31 170 57 121 136 185 239 194 146 13 190 18 193 21 2 2 -9 38 -23
81 -87 259 -222 372 -363 303z"/>
<path d="M343 4079 c-37 -29 -72 -57 -78 -64 -7 -8 -9 -296 -8 -826 0 -448 1
-820 2 -826 1 -12 129 -83 149 -83 4 0 8 416 8 925 0 509 -1 925 -2 925 -2 0
-33 -23 -71 -51z"/>
<path d="M6592 3835 c-91 -76 -137 -288 -106 -485 54 -339 248 -365 320 -43
13 62 12 259 -3 328 -38 179 -131 267 -211 200z"/>
<path d="M6270 3750 c-41 -4 -109 -10 -150 -14 -41 -4 -102 -9 -135 -12 -33
-3 -82 -7 -110 -9 -46 -4 -121 -10 -235 -20 -51 -4 -162 -14 -230 -20 -25 -2
-79 -7 -120 -10 -66 -6 -79 -10 -108 -38 -68 -65 -86 -188 -47 -307 31 -94 39
-104 87 -106 24 -1 113 -5 198 -8 159 -7 241 -10 510 -21 85 -4 180 -8 210
-10 82 -4 182 -7 209 -6 18 1 22 5 16 19 -50 119 -52 459 -3 555 6 12 5 17 -4
16 -7 -1 -47 -5 -88 -9z"/>
<path d="M2129 3546 c-2 -2 -71 -6 -152 -10 -171 -7 -191 -11 -234 -43 -69
-53 -86 -164 -35 -232 46 -62 61 -66 228 -67 85 0 168 1 183 4 l29 4 1 169 c1
146 -4 189 -20 175z"/>
</g>
</svg>
